<svg width="38" height="38" viewBox="0 0 38 38" fill="none" xmlns="http://www.w3.org/2000/svg">
<g id="arrow">
<circle id="Ellipse 4" cx="19.1429" cy="18.7037" r="18.7037" fill="black"/>
<path id="Vector" fill-rule="evenodd" clip-rule="evenodd" d="M19.8483 19.2306V18.8523C19.8376 17.3517 19.7521 16.0125 19.5918 15.1639C19.5918 15.1478 19.4208 14.3067 19.3139 14.0267C19.1429 13.6216 18.8329 13.2775 18.4481 13.0594C18.1382 12.9045 17.8175 12.8254 17.4755 12.8254C17.2083 12.8382 16.7702 12.9718 16.4602 13.084L16.193 13.1845C14.4723 13.8706 11.1697 16.114 9.89788 17.4853L9.80173 17.5815L9.39558 18.0303C9.12839 18.3734 8.98944 18.7945 8.98944 19.2466C8.98944 19.6517 9.11767 20.0568 9.36349 20.3838C9.4383 20.4896 9.5559 20.6254 9.66278 20.7408L10.0689 21.1651C11.4583 22.577 14.4723 24.5585 16.0434 25.2147C16.0434 25.2297 17.0159 25.6358 17.4755 25.6508H17.5397C18.2451 25.6508 18.9077 25.2457 19.2497 24.5916C19.3459 24.4121 19.4314 24.0615 19.5062 23.7537L19.6238 23.1723C19.7627 22.2382 19.8483 20.8039 19.8483 19.2306ZM26.6244 20.8605C27.5115 20.8605 28.2275 20.1348 28.2275 19.2381C28.2275 18.3424 27.5115 17.6167 26.6244 17.6167L22.6699 17.9662C21.9752 17.9662 21.4087 18.5348 21.4087 19.2381C21.4087 19.9413 21.9752 20.511 22.6699 20.511L26.6244 20.8605Z" fill="white"/>
</g>
</svg>
