<svg width="27" height="31" viewBox="0 0 27 31" fill="none" xmlns="http://www.w3.org/2000/svg">
<g id="Bag">
<path id="Combined Shape" fill-rule="evenodd" clip-rule="evenodd" d="M26.8699 21.9166L25.7165 12.6246C25.0139 9.30892 23.0254 7.94446 21.1297 7.94446H5.89757C3.97533 7.94446 1.92052 9.21341 1.32396 12.6246L0.157357 21.9166C-0.797136 28.7389 2.71593 30.4445 7.30279 30.4445H19.7377C24.3113 30.4445 27.7183 27.9748 26.8699 21.9166ZM9.1455 15.6675C8.41334 15.6675 7.81981 15.0567 7.81981 14.3031C7.81981 13.5495 8.41334 12.9386 9.1455 12.9386C9.87765 12.9386 10.4712 13.5495 10.4712 14.3031C10.4712 15.0567 9.87765 15.6675 9.1455 15.6675ZM16.503 14.3031C16.503 15.0567 17.0966 15.6675 17.8287 15.6675C18.5609 15.6675 19.1544 15.0567 19.1544 14.3031C19.1544 13.5495 18.5609 12.9386 17.8287 12.9386C17.0966 12.9386 16.503 13.5495 16.503 14.3031Z" fill="#F4CA00"/>
<path id="Path_34167" opacity="0.4" d="M20.9608 7.60594C20.9655 7.72229 20.9432 7.83815 20.8955 7.94446H18.7398C18.6981 7.83637 18.6759 7.72175 18.6745 7.60594C18.6745 4.72969 16.3348 2.39803 13.4486 2.39803C10.5625 2.39803 8.22276 4.72969 8.22276 7.60594C8.24254 7.71792 8.24254 7.83248 8.22276 7.94446H6.01483C5.99506 7.83248 5.99506 7.71792 6.01483 7.60594C6.18258 3.60332 9.48749 0.444458 13.5074 0.444458C17.5273 0.444458 20.8322 3.60332 21 7.60594H20.9608Z" fill="#F4CA00"/>
</g>
</svg>
