<svg width="69" height="60" viewBox="0 0 69 60" fill="none" xmlns="http://www.w3.org/2000/svg">
<g id="Group 15">
<path id="Vector" d="M69 12.562C68.6963 12.9171 68.4126 13.2939 68.0854 13.6255C66.5147 15.2064 64.9079 16.7511 63.3625 18.3572C61.9165 19.8605 60.3548 21.1386 58.1768 21.4738C58.1768 22.8005 58.1804 24.0803 58.1768 25.3583C58.1714 26.5066 57.6815 26.9986 56.5266 26.9986C45.9094 27.0005 35.2922 27.0005 24.6733 26.9986C23.4749 26.9986 23.0014 26.5192 23.0014 25.3133C22.9995 19.2441 22.9995 13.1731 23.0014 7.10389C23.0014 5.86734 23.4677 5.4131 24.7329 5.4131C29.624 5.4131 34.5168 5.40769 39.4079 5.42211C39.8489 5.42211 40.1634 5.30134 40.4689 4.98409C41.3744 4.04316 42.3197 3.14189 43.2343 2.20997C44.6966 0.712049 46.4607 4.11645e-05 48.5628 0.00725137C54.7625 0.0270794 60.9621 0.0270794 67.16 4.11643e-05C67.9914 -0.00356394 68.6006 0.228965 68.9982 0.958998V12.562H69ZM53.5659 8.10972C45.5678 8.10972 37.7902 8.10611 30.0144 8.12774C29.83 8.12774 29.5517 8.35847 29.4794 8.54413C28.8486 10.1448 27.7568 11.2714 26.1319 11.8464C25.7813 11.9708 25.6981 12.1366 25.6999 12.4737C25.7108 14.9684 25.6981 17.465 25.7234 19.9597C25.7252 20.1544 25.9241 20.4536 26.1012 20.5221C27.7352 21.1494 28.8522 22.2615 29.4884 23.8874C29.5589 24.0695 29.8481 24.284 30.0361 24.284C37.069 24.3038 44.1037 24.3038 51.1366 24.284C51.3264 24.284 51.6156 24.0695 51.6861 23.8892C52.3205 22.2633 53.4376 21.144 55.0752 20.5293C55.2306 20.4716 55.4439 20.295 55.4511 20.1634C55.4891 19.5054 55.4692 18.8421 55.4692 18.0977C55.1764 18.2581 54.9866 18.3716 54.7896 18.4672C52.476 19.592 49.6961 18.4293 48.9225 15.9869C48.3983 14.3339 48.805 12.8775 50.0106 11.6517C51.1385 10.5017 52.2916 9.37691 53.5677 8.10792L53.5659 8.10972ZM43.9519 5.4113C44.2754 5.4113 44.5122 5.4113 44.7508 5.4113C48.6712 5.4113 52.5935 5.40048 56.5139 5.42752C56.9314 5.43113 57.4249 5.56992 57.7466 5.82048C58.3955 6.327 58.3142 7.176 57.6183 7.87719C55.7295 9.77528 53.8208 11.6553 51.9355 13.5552C51.2487 14.2474 51.2469 15.1631 51.8795 15.7724C52.4959 16.3654 53.3671 16.3456 54.0575 15.6967C54.5329 15.2496 54.9848 14.7792 55.4475 14.3177C56.8971 12.8721 58.3413 11.4192 59.7999 9.98257C60.4904 9.30301 61.3164 9.28859 61.8785 9.90866C62.3882 10.4693 62.3593 11.2173 61.7538 11.8392C60.7018 12.9189 59.621 13.9716 58.56 15.0423C58.4082 15.1955 58.2021 15.392 58.1967 15.5741C58.1605 16.5961 58.1804 17.6182 58.1804 18.7051C59.142 18.451 59.874 17.9931 60.5048 17.3658C62.3232 15.5561 64.1469 13.7517 65.9435 11.9203C66.1478 11.713 66.2779 11.3417 66.2816 11.0443C66.3087 8.77486 66.296 6.50545 66.296 4.23423C66.296 3.74574 66.296 3.25725 66.296 2.70928H65.5007C60.0023 2.70928 54.5022 2.78498 49.0056 2.67322C46.7408 2.62636 45.3111 3.73673 43.9519 5.40769V5.4113Z" fill="#666666"/>
<path id="Vector_2" d="M13.3366 38.1909C13.3366 37.9086 13.3366 37.6663 13.3366 37.4223C13.3366 35.4678 13.3313 33.5152 13.3384 31.5608C13.3419 30.5299 13.8513 30.0034 14.8558 30.0034C22.7192 29.998 30.5844 29.9998 38.4478 30.0034C39.4951 30.0034 39.9955 30.5207 39.9973 31.599C40.0009 38.71 40.0009 45.821 39.9973 52.932C39.9973 54.0413 39.4969 54.5367 38.3926 54.5404C37.1067 54.5458 35.8225 54.5404 34.5437 54.5404C34.5437 55.3491 34.6613 56.1305 34.5206 56.8609C34.1822 58.6259 32.6237 59.9665 30.8623 59.9756C25.1753 60.0066 19.4884 60.0139 13.8015 59.9629C12.04 59.9465 10.5653 59.1049 9.32743 57.8281C7.52677 55.9739 5.70831 54.1396 3.91656 52.2781C3.59775 51.9466 3.2825 51.7645 2.81764 51.8027C2.33141 51.8428 1.83984 51.8282 1.35183 51.8063C0.550348 51.7699 0.0142485 51.2399 0.0106864 50.4166C-0.00356213 46.8046 -0.00356213 43.1927 0.0106864 39.5807C0.0142485 38.6827 0.587751 38.1836 1.54596 38.1818C5.32182 38.18 9.09945 38.1855 12.8753 38.1891C13.0035 38.1891 13.1318 38.1891 13.333 38.1891L13.3366 38.1909ZM37.3026 32.7739H29.3341C29.3341 33.0671 29.3341 33.3149 29.3341 33.5626C29.3341 36.1982 29.343 38.8321 29.3199 41.4659C29.3181 41.7173 29.1667 42.098 28.9832 42.1781C28.8069 42.2564 28.4525 42.0816 28.2583 41.9158C27.8344 41.5515 27.4515 41.1362 27.0757 40.7191C26.7783 40.3876 26.5361 40.4113 26.2493 40.7319C25.9056 41.1162 25.5565 41.506 25.1593 41.832C24.9295 42.0215 24.6036 42.087 24.3222 42.2091C24.2153 41.9103 24.0176 41.6134 24.0159 41.3147C23.9909 38.7027 24.0016 36.0908 24.0016 33.4788C24.0016 33.2402 24.0016 32.9998 24.0016 32.783H16.0011C16.0011 34.4515 16.0367 36.0653 15.9886 37.6754C15.9601 38.6426 16.1774 39.3075 16.9522 40.0361C19.4528 42.3857 21.8127 44.8903 24.1886 47.3747C25.2199 48.453 25.5422 49.7936 25.2109 51.2781C25.1753 51.4402 25.1522 51.6078 25.1219 51.779H37.3026V32.7721V32.7739ZM2.69475 49.0505C4.01511 49.1525 5.13837 49.6783 6.06452 50.6279C7.8064 52.4129 9.55718 54.1906 11.2955 55.9793C12.0311 56.7352 12.902 57.2452 13.9422 57.2507C19.5187 57.278 25.0952 57.2671 30.6717 57.2671C30.7376 57.2671 30.8053 57.2634 30.8712 57.2507C31.5159 57.1341 31.9897 56.5731 31.9968 55.921C32.0039 55.2434 31.5088 54.6551 30.8338 54.5604C30.6147 54.5294 30.3903 54.544 30.1676 54.544C27.2342 54.544 24.3026 54.5276 21.3692 54.5495C20.069 54.5586 18.9968 54.1032 18.0903 53.1597C16.7349 51.7499 15.3599 50.3619 13.9938 48.963C13.8994 48.8665 13.8032 48.7718 13.7177 48.668C13.2084 48.0468 13.2173 47.2964 13.7391 46.7664C14.2592 46.2381 14.9912 46.229 15.5985 46.7554C15.7499 46.8866 15.8871 47.0378 16.0296 47.1817C17.3654 48.5478 18.6887 49.9248 20.0405 51.2745C20.9578 52.1907 22.3185 51.8501 22.6213 50.6534C22.7834 50.0122 22.5304 49.5058 22.0923 49.0614C19.8428 46.7664 17.5969 44.4695 15.3528 42.169C14.5068 41.302 13.4898 40.8994 12.2947 40.9031C9.27399 40.914 6.25153 40.9049 3.23085 40.9085C3.05987 40.9085 2.89067 40.9322 2.69831 40.945V49.0487L2.69475 49.0505Z" fill="#666666"/>
<path id="Vector_3" d="M44.9999 15.967C45.0142 18.1876 43.216 20 40.9991 20C38.8071 20 37.0143 18.2196 37.0001 16.0312C36.9858 13.8089 38.7822 12 41.0009 12C43.1929 12 44.9857 13.7786 44.9999 15.967Z" fill="#666666"/>
</g>
</svg>
