<svg width="44" height="33" viewBox="0 0 44 33" fill="none" xmlns="http://www.w3.org/2000/svg">
<path fill-rule="evenodd" clip-rule="evenodd" d="M26.743 23.8231C26.743 24.7307 27.4788 25.4665 28.3864 25.4665H36.3252C37.2328 25.4665 37.9686 24.7307 37.9686 23.8231C37.9686 22.9155 37.2328 22.1797 36.3252 22.1797H28.3864C27.4788 22.1797 26.743 22.9155 26.743 23.8231ZM17.2074 23.8231C17.2074 24.7307 17.9432 25.4665 18.8508 25.4665H20.6364C21.544 25.4665 22.2798 24.7307 22.2798 23.8231C22.2798 22.9155 21.544 22.1797 20.6364 22.1797H18.8508C17.9432 22.1797 17.2074 22.9155 17.2074 23.8231ZM0 28C0 30.7614 2.23858 33 5 33H39C41.7614 33 44 30.7614 44 28V18.2855C44 15.524 41.7614 13.2855 39 13.2855H5C2.23858 13.2855 0 15.524 0 18.2855V28Z" fill="white"/>
<path fill-rule="evenodd" clip-rule="evenodd" d="M0 4.9993C0 7.76034 2.23826 9.9986 4.9993 9.9986H39.0007C41.7617 9.9986 44 7.76034 44 4.9993C44 2.23826 41.7617 0 39.0007 0H4.9993C2.23826 0 0 2.23826 0 4.9993Z" fill="white"/>
</svg>
