<svg width="20" height="20" viewBox="0 0 20 20" fill="none" xmlns="http://www.w3.org/2000/svg">
<circle cx="9.99993" cy="9.99999" r="8.18182" fill="white"/>
<path d="M20 10.0003C19.9999 11.9781 19.4134 13.9115 18.3145 15.556C17.2156 17.2004 15.6538 18.4821 13.8265 19.2389C11.9992 19.9957 9.98858 20.1937 8.04878 19.8078C6.10899 19.4219 4.32718 18.4694 2.9287 17.0708C1.53022 15.6723 0.577879 13.8904 0.192089 11.9506C-0.1937 10.0108 0.0043962 8.0001 0.761331 6.17287C1.51827 4.34563 2.80004 2.78389 4.44457 1.68513C6.0891 0.586366 8.02251 -6.38031e-05 10.0003 5.20659e-09C11.3135 4.23723e-05 12.6139 0.258743 13.8271 0.761329C15.0404 1.26392 16.1427 2.00055 17.0713 2.92916C17.9999 3.85778 18.7364 4.96019 19.2389 6.17346C19.7414 7.38674 20 8.6871 20 10.0003ZM8.84435 15.2935L16.2623 7.87561C16.3223 7.81574 16.3699 7.74462 16.4024 7.66631C16.4349 7.588 16.4517 7.50405 16.4517 7.41926C16.4517 7.33448 16.4349 7.25052 16.4024 7.17221C16.3699 7.0939 16.3223 7.02278 16.2623 6.96291L15.3496 6.05687C15.2898 5.99687 15.2188 5.94927 15.1406 5.91679C15.0624 5.8843 14.9785 5.86758 14.8939 5.86758C14.8092 5.86758 14.7253 5.8843 14.6471 5.91679C14.5689 5.94927 14.4979 5.99687 14.4381 6.05687L8.38806 12.1071L5.56315 9.27549C5.44188 9.15489 5.27781 9.0872 5.10679 9.0872C4.93577 9.0872 4.7717 9.15489 4.65044 9.27549L3.73773 10.1936C3.61714 10.3148 3.54945 10.4789 3.54945 10.6499C3.54945 10.8209 3.61714 10.985 3.73773 11.1063L7.93186 15.2989C7.99173 15.3589 8.06286 15.4066 8.14117 15.4391C8.21948 15.4716 8.30343 15.4883 8.38821 15.4883C8.473 15.4883 8.55695 15.4716 8.63526 15.4391C8.71357 15.4066 8.7847 15.3589 8.84457 15.2989L8.84435 15.2935Z" fill="#28CB86"/>
</svg>
