<svg width="59" height="49" viewBox="0 0 59 49" fill="none" xmlns="http://www.w3.org/2000/svg">
<g id="Group 14">
<path id="Vector" d="M59 13.4744V12.1427C59 5.89539 55.3446 0.0390118 46.7099 0.0390118H33.5694L22.9263 48.5435H43.2273C50.1596 48.5245 55.7732 42.9051 55.7922 35.9694V34.4958C55.787 30.5161 53.8997 26.775 50.704 24.4072C55.6056 23.0373 58.9948 18.5681 58.9965 13.4762L59 13.4744ZM47.8004 35.0579C47.2128 42.151 39.1622 43.085 31.9741 42.2721L35.149 27.8387H39.9002C42.51 27.8421 48.3829 28.0894 47.8056 35.0579H47.8021H47.8004ZM52.1679 13.8774C51.5803 20.9705 43.5297 21.9044 36.3416 21.0915L39.5165 6.64949H44.2677C46.8775 6.64949 52.7331 6.88299 52.1679 13.8688V13.8774ZM20.8333 6.65641C20.4496 6.63047 20.0607 6.61836 19.6667 6.61836C12.6341 6.61836 7.18812 10.0326 7.18812 15.1764C7.18812 19.6888 11.5764 23.5268 17.3991 24.3795L16.3535 30.2497C4.92401 29.4108 0 22.3126 0 15.1556C0 7.1061 8.09895 0.0269047 19.0963 0.0269047C19.8481 0.0269047 21.4071 -0.0336308 22.1192 0.0269047L20.8316 6.65814L20.8333 6.65641Z" fill="#666666"/>
<path id="Vector_2" d="M20.7244 6.63556L22.1364 0.0302734H29.4974L28.0854 6.64767L20.7244 6.63556ZM24.366 24.3794L19.0306 48.5434H11.6697L17.0431 24.3794H24.3643H24.366Z" fill="#B3B3B3"/>
</g>
</svg>
